<?xml version="1.0" encoding="iso-8859-1"?>
<!-- Generator: Adobe Illustrator 18.1.1, SVG Export Plug-In . SVG Version: 6.00 Build 0)  -->
<svg version="1.1" id="Capa_1" xmlns="http://www.w3.org/2000/svg" xmlns:xlink="http://www.w3.org/1999/xlink" x="0px" y="0px"
	 viewBox="0 0 25.625 25.625" style="enable-background:new 0 0 25.625 25.625;" xml:space="preserve">
<g>
	<path style="fill:#030104;" d="M12.812,0.435C5.736,0.435,0,5.499,0,11.747S5.736,23.06,12.812,23.06s12.813-5.065,12.813-11.313
		S19.888,0.435,12.812,0.435z"/>
	<path style="fill:#030104;" d="M15.781,15.569l-0.362-1.951c0,0-0.483-1.625-2.152-1c-4.308,1.616-6.802,0.668-7.787,0.559
		c-1.009-0.113-1.594,4.606-1.552,5.669c0.15,3.745-3.979,5.128-3.725,6.042c3.25,1.344,10.23-2.236,10.23-2.236
		s1.6-4.088,3.764-5.01C16.083,16.841,15.781,15.569,15.781,15.569z"/>
</g>
<g>
</g>
<g>
</g>
<g>
</g>
<g>
</g>
<g>
</g>
<g>
</g>
<g>
</g>
<g>
</g>
<g>
</g>
<g>
</g>
<g>
</g>
<g>
</g>
<g>
</g>
<g>
</g>
<g>
</g>
</svg>
